<svg width="20" height="20" viewBox="0 0 20 20" fill="currentColor" xmlns="http://www.w3.org/2000/svg">
<path d="M8.35793 7.47601C8.11385 7.23194 7.71813 7.23194 7.47405 7.47601C7.22997 7.72009 7.22997 8.11582 7.47405 8.3599L9.11545 10.0013L7.47407 11.6427C7.22999 11.8868 7.22999 12.2825 7.47407 12.5266C7.71814 12.7706 8.11387 12.7706 8.35795 12.5266L9.99933 10.8852L11.6407 12.5265C11.8848 12.7706 12.2805 12.7706 12.5246 12.5265C12.7687 12.2825 12.7687 11.8867 12.5246 11.6427L10.8832 10.0013L12.5246 8.35991C12.7687 8.11584 12.7687 7.72011 12.5246 7.47603C12.2805 7.23195 11.8848 7.23195 11.6407 7.47603L9.99933 9.11741L8.35793 7.47601Z" fill="#currentColor"/>
<path fill-rule="evenodd" clip-rule="evenodd" d="M9.99935 1.04297C5.0518 1.04297 1.04102 5.05375 1.04102 10.0013C1.04102 14.9489 5.0518 18.9596 9.99935 18.9596C14.9469 18.9596 18.9577 14.9489 18.9577 10.0013C18.9577 5.05375 14.9469 1.04297 9.99935 1.04297ZM2.29102 10.0013C2.29102 5.74411 5.74215 2.29297 9.99935 2.29297C14.2565 2.29297 17.7077 5.74411 17.7077 10.0013C17.7077 14.2585 14.2565 17.7096 9.99935 17.7096C5.74215 17.7096 2.29102 14.2585 2.29102 10.0013Z" fill="#currentColor"/>
<path d="M8.35793 7.47601C8.11385 7.23194 7.71813 7.23194 7.47405 7.47601C7.22997 7.72009 7.22997 8.11582 7.47405 8.3599L9.11545 10.0013L7.47407 11.6427C7.22999 11.8868 7.22999 12.2825 7.47407 12.5266C7.71814 12.7706 8.11387 12.7706 8.35795 12.5266L9.99933 10.8852L11.6407 12.5265C11.8848 12.7706 12.2805 12.7706 12.5246 12.5265C12.7687 12.2825 12.7687 11.8867 12.5246 11.6427L10.8832 10.0013L12.5246 8.35991C12.7687 8.11584 12.7687 7.72011 12.5246 7.47603C12.2805 7.23195 11.8848 7.23195 11.6407 7.47603L9.99933 9.11741L8.35793 7.47601Z" stroke="#F3164E"/>
<path fill-rule="evenodd" clip-rule="evenodd" d="M9.99935 1.04297C5.0518 1.04297 1.04102 5.05375 1.04102 10.0013C1.04102 14.9489 5.0518 18.9596 9.99935 18.9596C14.9469 18.9596 18.9577 14.9489 18.9577 10.0013C18.9577 5.05375 14.9469 1.04297 9.99935 1.04297ZM2.29102 10.0013C2.29102 5.74411 5.74215 2.29297 9.99935 2.29297C14.2565 2.29297 17.7077 5.74411 17.7077 10.0013C17.7077 14.2585 14.2565 17.7096 9.99935 17.7096C5.74215 17.7096 2.29102 14.2585 2.29102 10.0013Z" stroke="#F3164E"/>
</svg>
