<svg viewBox="0 0 20 20" fill="none" xmlns="http://www.w3.org/2000/svg">
<rect width="20" height="20" rx="10" fill="white"/>
<path d="M10.0156 10.0013C10.0156 8.71264 11.0603 7.66797 12.3489 7.66797C13.6376 7.66797 14.6823 8.71266 14.6823 10.0013C14.6823 11.29 13.6376 12.3346 12.3489 12.3346C11.0603 12.3346 10.0156 11.2899 10.0156 10.0013Z" fill="#00BCFF"/>
<path d="M5.34961 14.6656C5.34961 13.3769 6.39428 12.3323 7.68293 12.3323L8.92639 11.6758L10.0163 12.3323V14.6656C10.0163 15.9543 8.97159 16.9989 7.68293 16.9989C6.39428 16.9989 5.34961 15.9543 5.34961 14.6656Z" fill="#00CF7F"/>
<path d="M10.0158 3L8.74609 5.20582L10.0158 7.66665H12.3164C13.6051 7.66665 14.6497 6.62198 14.6497 5.33332C14.6497 4.04467 13.605 3 12.3164 3H10.0158Z" fill="#FF7361"/>
<path d="M5.31641 5.33332C5.31641 6.62198 6.36107 7.66665 7.64973 7.66665L8.8875 8.14473L10.0158 7.66665V3H7.6497C6.36107 3 5.31641 4.04467 5.31641 5.33332Z" fill="#FF4D12"/>
<path d="M5.34961 10.0013C5.34961 11.29 6.39428 12.3346 7.68293 12.3346H10.0163V7.66797H7.68293C6.39428 7.66797 5.34961 8.71266 5.34961 10.0013Z" fill="#B659FF"/>
</svg>
