<svg viewBox="0 0 20 20" fill="none" xmlns="http://www.w3.org/2000/svg">
<path d="M10.0186 0.0742188C4.5067 0.0742188 0.0371094 4.61918 0.0371094 10.2261C0.0371094 14.7116 2.89711 18.517 6.86306 19.8594C7.3619 19.9534 7.54504 19.6391 7.54504 19.371C7.54504 19.1289 7.53579 18.3292 7.53149 17.4809C4.75463 18.095 4.16868 16.2831 4.16868 16.2831C3.71463 15.1097 3.06041 14.7976 3.06041 14.7976C2.15479 14.1675 3.12868 14.1805 3.12868 14.1805C4.13099 14.2519 4.65876 15.2267 4.65876 15.2267C5.54901 16.7787 6.9938 16.33 7.56339 16.0706C7.65298 15.4146 7.91165 14.9664 8.19711 14.7131C5.98008 14.4564 3.64951 13.5859 3.64951 9.69588C3.64951 8.58751 4.03942 7.68188 4.67794 6.97092C4.5743 6.71505 4.23265 5.68267 4.77463 4.2843C4.77463 4.2843 5.61281 4.01145 7.52025 5.32492C8.31645 5.09998 9.17033 4.98718 10.0186 4.98331C10.8669 4.98718 11.7214 5.09998 12.5191 5.32492C14.4242 4.01145 15.2612 4.2843 15.2612 4.2843C15.8045 5.68267 15.4627 6.71505 15.3591 6.97092C15.9991 7.68188 16.3864 8.58751 16.3864 9.69588C16.3864 13.5951 14.0513 14.4537 11.8287 14.705C12.1867 15.0201 12.5057 15.6379 12.5057 16.585C12.5057 17.9432 12.4941 19.0365 12.4941 19.371C12.4941 19.6412 12.6738 19.9577 13.1798 19.858C17.1436 18.5141 19.9999 14.71 19.9999 10.2261C19.9999 4.61918 15.531 0.0742188 10.0186 0.0742188Z" fill="white"/>
<path d="M3.8181 14.6487C3.79612 14.6993 3.7181 14.7142 3.64702 14.6796C3.57463 14.6465 3.53397 14.5777 3.55744 14.5271C3.57892 14.4752 3.65711 14.4609 3.72934 14.4954C3.8019 14.5286 3.84322 14.5981 3.8181 14.6487Z" fill="white"/>
<path d="M4.22141 15.1096C4.17381 15.1545 4.08075 15.1337 4.01761 15.0627C3.95232 14.9919 3.94009 14.8973 3.98835 14.8517C4.03745 14.8068 4.12769 14.8279 4.19315 14.8986C4.25844 14.9703 4.27116 15.0642 4.22141 15.1096Z" fill="white"/>
<path d="M4.61634 15.6949C4.55518 15.7381 4.45518 15.6976 4.39336 15.6073C4.3322 15.5171 4.3322 15.4088 4.39468 15.3654C4.45667 15.322 4.55518 15.361 4.61782 15.4506C4.67881 15.5423 4.67881 15.6507 4.61634 15.6949Z" fill="white"/>
<path d="M5.15496 16.2569C5.10025 16.3183 4.98372 16.3018 4.89843 16.2181C4.81116 16.1362 4.78686 16.0201 4.84174 15.9587C4.89711 15.8972 5.0143 15.9145 5.10025 15.9975C5.18686 16.0792 5.21331 16.1963 5.15496 16.2569Z" fill="white"/>
<path d="M5.89799 16.585C5.87386 16.6645 5.76163 16.7007 5.64857 16.6669C5.53568 16.6321 5.46179 16.539 5.4846 16.4586C5.50808 16.3786 5.6208 16.3409 5.73469 16.3771C5.84741 16.4117 5.92146 16.5042 5.89799 16.585Z" fill="white"/>
<path d="M6.71603 16.6482C6.71884 16.7319 6.62298 16.8013 6.5043 16.8027C6.38496 16.8055 6.28843 16.7378 6.28711 16.6554C6.28711 16.5708 6.38083 16.5021 6.50017 16.5001C6.61884 16.4977 6.71603 16.565 6.71603 16.6482Z" fill="white"/>
<path d="M7.47635 16.5145C7.49057 16.5962 7.40809 16.6801 7.29024 16.7023C7.17437 16.724 7.0671 16.6736 7.05239 16.5925C7.03801 16.5088 7.12197 16.4249 7.23767 16.4032C7.35569 16.3824 7.46131 16.4315 7.47635 16.5145Z" fill="white"/>
</svg>
