<svg viewBox="0 0 20 20" fill="none" xmlns="http://www.w3.org/2000/svg">
<path fill-rule="evenodd" clip-rule="evenodd" d="M9.58268 2.29297C5.55561 2.29297 2.29102 5.55756 2.29102 9.58464C2.29102 13.6117 5.55561 16.8763 9.58268 16.8763C13.6098 16.8763 16.8743 13.6117 16.8743 9.58464C16.8743 5.55756 13.6098 2.29297 9.58268 2.29297ZM1.04102 9.58464C1.04102 4.8672 4.86525 1.04297 9.58268 1.04297C14.3001 1.04297 18.1243 4.8672 18.1243 9.58464C18.1243 11.7184 17.342 13.6694 16.0484 15.1665L18.7746 17.8927C19.0187 18.1368 19.0187 18.5325 18.7746 18.7766C18.5305 19.0207 18.1348 19.0207 17.8907 18.7766L15.1645 16.0504C13.6675 17.3439 11.7164 18.1263 9.58268 18.1263C4.86525 18.1263 1.04102 14.3021 1.04102 9.58464Z" fill="currentColor"/>
</svg>
