<svg viewBox="0 0 20 20" fill="none" xmlns="http://www.w3.org/2000/svg">
<path d="M10 0C15.5228 1.28852e-07 20 4.47715 20 10C20 15.5228 15.5228 20 10 20C4.47715 20 1.28855e-07 15.5228 0 10C0 4.47715 4.47715 0 10 0ZM14.9131 6.85449C15.081 6.18117 14.6567 5.87552 14.2168 6.0752L4.58398 9.79004C3.9269 10.0538 3.93113 10.4206 4.46484 10.584L6.93652 11.3555L12.6592 7.74512C12.9293 7.58129 13.1771 7.66899 12.9736 7.84961L8.33691 12.0342L8.16699 14.583C8.41676 14.5829 8.52751 14.4686 8.66699 14.333L9.86816 13.165L12.3662 15.0117C12.826 15.2654 13.1588 15.1341 13.2734 14.585L14.9131 6.85449Z" fill="white"/>
</svg>
