<svg width="99" height="32" viewBox="0 0 99 32" fill="none" xmlns="http://www.w3.org/2000/svg">
<path d="M16.4357 5.95703H21.1688L13.9604 18.6008V24.9092H9.49938V18.6008L2.29102 5.95703H7.02406L11.7299 14.5667L16.4357 5.95703Z" fill="currentColor"/>
<path d="M26.914 25.207C24.8467 25.207 23.133 24.5663 21.7729 23.2847C20.4129 21.9852 19.7328 20.2975 19.7328 18.2218C19.7328 16.1641 20.4038 14.4855 21.7457 13.1859C23.1058 11.8864 24.7832 11.2366 26.778 11.2366C28.7365 11.2366 30.3595 11.8503 31.6471 13.0776C32.9346 14.287 33.5784 15.8844 33.5784 17.8698C33.5784 18.2308 33.5511 18.6821 33.4967 19.2236H24.1123C24.2573 20.0719 24.5747 20.7127 25.0643 21.1459C25.5721 21.579 26.1796 21.7956 26.8868 21.7956C27.4852 21.7956 28.0021 21.6512 28.4373 21.3624C28.8725 21.0556 29.1445 20.6495 29.2533 20.1441L33.0343 21.1459C32.6716 22.4815 31.9281 23.4923 30.8038 24.1782C29.6976 24.8641 28.401 25.207 26.914 25.207ZM24.2483 16.5161H29.4165C29.3077 16.0288 29.0176 15.6046 28.5461 15.2436C28.0927 14.8646 27.5124 14.675 26.8052 14.675C25.5358 14.675 24.6835 15.2887 24.2483 16.5161Z" fill="currentColor"/>
<path d="M48.041 21.4437C48.1861 21.4437 48.3946 21.3985 48.6666 21.3083V24.9634C48.2858 25.1078 47.7508 25.18 47.0617 25.18C45.3209 25.18 44.1421 24.6926 43.5256 23.7179C42.5826 24.6926 41.2316 25.18 39.4725 25.18C38.0943 25.18 36.97 24.819 36.0996 24.097C35.2473 23.375 34.8211 22.3823 34.8211 21.1188C34.8211 19.9455 35.211 18.9979 35.9908 18.2759C36.7705 17.554 37.8223 17.1298 39.1461 17.0034L43.0359 16.6515V16.3807C43.0359 15.8573 42.8546 15.4421 42.4919 15.1353C42.1292 14.8104 41.6668 14.648 41.1046 14.648C40.0891 14.648 39.4816 15.1353 39.2821 16.11L35.3923 15.5685C35.6281 14.0523 36.2991 12.9513 37.4052 12.2654C38.5296 11.5795 39.8715 11.2366 41.4311 11.2366C43.2807 11.2366 44.7315 11.6788 45.7833 12.5632C46.8532 13.4296 47.3882 14.666 47.3882 16.2724V20.7127C47.3882 21.2 47.6058 21.4437 48.041 21.4437ZM43.0359 19.6568V19.3589L40.479 19.6568C40.0438 19.7109 39.6992 19.8553 39.4454 20.0899C39.1915 20.3065 39.0645 20.5683 39.0645 20.8751C39.0645 21.2361 39.2187 21.5159 39.527 21.7144C39.8534 21.913 40.2614 22.0032 40.751 21.9852C41.4039 21.9491 41.9479 21.7325 42.3831 21.3354C42.8183 20.9383 43.0359 20.3787 43.0359 19.6568Z" fill="currentColor"/>
<path d="M58.4538 11.2366C59.9771 11.2366 61.2193 11.6788 62.1804 12.5632C63.1597 13.4477 63.6493 14.6841 63.6493 16.2724V24.9092H59.2971V17.5991C59.2971 16.7868 59.0976 16.1822 58.6986 15.7851C58.2997 15.3699 57.7556 15.1624 57.0665 15.1624C56.3774 15.1624 55.8243 15.379 55.4073 15.8122C55.0083 16.2454 54.8088 16.8771 54.8088 17.7074V24.9092H50.4566V5.95703H54.8088V12.6174C55.6974 11.6968 56.9124 11.2366 58.4538 11.2366Z" fill="currentColor"/>
<path d="M74.9413 11.5073H79.2935V24.9092H74.9413V23.7992C74.0527 24.7197 72.8377 25.18 71.2963 25.18C69.8455 25.18 68.6124 24.7197 67.5969 23.7992C66.5995 22.8606 66.1008 21.552 66.1008 19.8733V11.5073H70.453V18.9257C70.453 19.7019 70.6525 20.2885 71.0515 20.6856C71.4504 21.0646 71.9944 21.2541 72.6835 21.2541C73.3726 21.2541 73.9167 21.0376 74.3156 20.6044C74.7327 20.1712 74.9413 19.5394 74.9413 18.7091V11.5073Z" fill="currentColor"/>
<path d="M90.0705 11.2366C91.9202 11.2366 93.4888 11.8954 94.7764 13.213C96.0639 14.5126 96.7077 16.1822 96.7077 18.2218C96.7077 20.2253 96.073 21.8859 94.8036 23.2035C93.5342 24.5211 91.9656 25.18 90.0977 25.18C88.5019 25.18 87.1963 24.6926 86.1807 23.7179V24.9092H81.8285V5.95703H86.1807V12.6715C87.1781 11.7149 88.4747 11.2366 90.0705 11.2366ZM89.2001 21.4166C90.0343 21.4166 90.7415 21.1278 91.3218 20.5502C91.9021 19.9546 92.1922 19.1784 92.1922 18.2218C92.1922 17.2471 91.9021 16.471 91.3218 15.8934C90.7596 15.2977 90.0524 14.9999 89.2001 14.9999C88.3297 14.9999 87.6043 15.2977 87.024 15.8934C86.4618 16.471 86.1807 17.2471 86.1807 18.2218C86.1807 19.1784 86.4618 19.9546 87.024 20.5502C87.6043 21.1278 88.3297 21.4166 89.2001 21.4166Z" fill="currentColor"/>
</svg>
