<svg viewBox="0 0 20 20" fill="none" xmlns="http://www.w3.org/2000/svg">
<path d="M10 0C15.5228 1.28852e-07 20 4.47715 20 10C20 15.5228 15.5228 20 10 20C4.47715 20 1.28855e-07 15.5228 0 10C0 4.47715 4.47715 0 10 0ZM10 6.33301C10 6.33301 6.66533 6.3337 5.83301 6.5625C5.37412 6.68842 5.01238 7.05914 4.88965 7.53027C4.6668 8.38437 4.66699 10.167 4.66699 10.167C4.66701 10.1945 4.66856 11.9552 4.88965 12.8027C5.01232 13.274 5.37404 13.6455 5.83301 13.7715C6.66558 14.0002 10 14 10 14C10.0016 14 13.3348 14.0001 14.167 13.7715C14.626 13.6455 14.9877 13.274 15.1104 12.8027C15.3315 11.9552 15.333 10.1945 15.333 10.167C15.333 10.167 15.3333 8.38437 15.1104 7.53027C14.9876 7.05913 14.6259 6.68842 14.167 6.5625C13.335 6.33374 10.0016 6.33301 10 6.33301Z" fill="white"/>
<path d="M9 12.0013V8.66797L11.6667 10.3347L9 12.0013Z" fill="white"/>
</svg>
